/* XPM */
static char *wall_north[] = {
/* columns rows colors chars-per-pixel */
"64 53 81 1 ",
"  c #2F3733",
". c #2F3C35",
"X c #353635",
"o c #383737",
"O c #333936",
"+ c #383738",
"@ c #363C39",
"# c #3B3C3B",
"$ c #403F3F",
"% c #2F4339",
"& c #34433C",
"* c #3B423E",
"= c #34493F",
"- c #403F40",
"; c #3D4441",
": c #374C41",
"> c #3C4B43",
", c #2E5341",
"< c #2E5A45",
"1 c #355445",
"2 c #3A5146",
"3 c #3D5448",
"4 c #325D48",
"5 c #3C5A4B",
"6 c #35634C",
"7 c #3B624F",
"8 c #3F6652",
"9 c #366A51",
"0 c #3B6A53",
"q c #444443",
"w c #484747",
"e c #434A46",
"r c #484847",
"t c #494748",
"y c #454D49",
"u c #4B4B4B",
"i c #504E4F",
"p c #44534B",
"a c #4B524E",
"s c #45594E",
"d c #51504F",
"f c #524F50",
"g c #4D5551",
"h c #455D51",
"j c #4D5C54",
"k c #545453",
"l c #595656",
"z c #535A56",
"x c #585857",
"c c #5A5758",
"v c #555C59",
"b c #5B5B5B",
"n c #615E5E",
"m c #446353",
"M c #4B6256",
"N c #426956",
"B c #4E6359",
"V c #466D59",
"C c #4C6A5B",
"Z c #54635B",
"A c #5C625E",
"S c #536A5E",
"D c #58685F",
"F c #60605F",
"G c #625F60",
"H c #5E6560",
"J c #546D60",
"K c #5C6A62",
"L c #646362",
"P c #696566",
"I c #636A65",
"U c #6B6668",
"Y c #656C68",
"T c #6A6A69",
"R c #67736C",
"E c #6A716D",
"W c #6A7C72",
"Q c #737372",
"! c #737975",
"~ c #7B7A79",
"^ c #6E8579",
/* pixels */
"@gzbe@pjkaoxkrk@lllgOkgzc#2zxxXXXXX+axxu*u3kj$uzlgq&slle&hnkr*kl",
"l5Bj0zBzM9kxnjgdbjjmdGbbGgHzjv;;;>>>KjbjrFmlMsPvlzllaZlgnFbxvxxx",
"*v=>q@=re;+>eey@u1>w+eidu+q>er+@;#:Xqr,3#qeeu*&*ru$*uww**uue$@e=",
"KU>ZYJSqO&#*@zSPKgkPBPbuLLHjuLPPAyHNLzqHPIF***&#*FPFA;FAAF*##=#@",
"zbrZzzme&2u=*kxvxagvvBguxgbguxvjzyZzgbxvZzk#*>qq*jzvMqvlcz#*qqq%",
"#gxgr@kakdOaklyo@akk@allkX+ XO+kkal@egkz@uzdl$wjdlq*glkwXoXXX*kk",
"xvzzzxzZAvaMvkzkHzMxgblxx;$>qwyLlzzrPxxzrIxzvuFksddFnkzaXqq;yLbx",
"#err>+yyrq@y2ew@2uue+t5ywX%#$;+qrer+:yyy+qyue#qqdd=e=uu$X=#u$qry",
"DS$bCYIuzIPPyO&#$*kAPHlyJFIbyDbAZeSIAZrUPAFqLPAD:PTIIqLBLPqsYLI$",
"xzkFAAxuvlNxuo*u3;gBzzufMkZxdzbngpBbZAdzjxcuvkvxyKbvbwxczz;Gvccq",
"@kakp+sakdOlded+kkkkokakk#3kkc#oXXX+exka*rpaz$qzcgq*akcq@sccr@kk",
"d7mv9kkMM9gxFzgdbjv8aGbcbzAvzz>*q>>>IMbgeFjcmpFAczlxszzgxAnvvccc",
"*z=3u&=aue#pasa#t15r@yuuu@y2yuo@;;>@ru<p#wyya&>err-;kruqegiyq*e2",
"AP>gFDSeO&o;$aSFHguPjPxrFLFzqLLLbqINLx$ALLF@@+&#&LPLZ&nZHL#o#&@O",
"BAyAzzhu@=q=*lxvvgkvbZzdxakkizzzjczjazbbzvc@=>qq#jzzvrLbcjq@qqq%",
"#ddau@suaaopddy+@pkk#skdko#oX@@ugyl@>aik*wdad$-aike#pikw++XXX@kk",
"kvvBkkzZvvamxkkkAzNbkFxbx*q:eq;LxzzrPxlZrIbxviFvgganxvzgXqq;>nbb",
"$audy*yady#a5au$puda#u5auo%*$*ouuyi#ypaa$daia*rrlk;;puueX=$yttkg",
"AZ$kmAAisFPFeO%o@&uAFAdrCAFkrAlvvqSAAh$FIvn$nFvA&nLAL$bjGn#3HLP#",
"zpkLvAnubxMxi+>q2rxMzxakjxzzcjbFjpBxZvdbjxkivkzzyKFAxuAxzzeLvbxq",
"*kriy;puda@kdqu#guag#dyik@2luk##+X*@ekda$uyykqqdihq*gukq#suku*gu",
"r7mZ0zvZM9dbndpdFbb0annxnaLvbv;*q:**ISFz*LMvmpFAGvlkhxxhbbGFvlbb",
"ukymu*6aay*sasZ-k4su#akkzqapaa+&;*1@dd6a-isaa*pafkqplakqegcgtea3",
"FLeaAbZ*O@++OyMnArtGhnkqFbAaqFAFkqb7Fk#vnFvO+#=+@xnbz@cgvP#X@.+O",
"mnyLzjjr@1q:*bxzzgbvbZvbcakkkczzZkvzaaFvvZl@>peq;jvxvrGcxje#qeq%",
";arpr*sere@rrry$q>ra*puti@q@X@#uuqa*eawd*raqi#$yqiq;pwyt$#X +#uw",
"kAAZzdZZZApZAAZdvBZbabnnb=$=;q*PAbArIbAZqIbbAuFbvzaxbAvg+--;;bGb",
"qaddpqkakgqgsgu$skga$dmgko&q$q#caad#sjdd$kgkaqauxx>yslftO:-udfgg",
"Zv$asAzqaAnb*Ooo+oybbvu;mxbk*Akzk$Mbzp#bAzc#cnzv&xbAL#x5bb#2bvb#",
"kpkUvZbkFxZxd+>q:qFBzxkxjcjzxznAMsZxZZknzxcdxzzlaAnHbuLxzzeLjxbq",
"qkqureaery=iu$q+prep$iqqa*>uraq$@X;qriuuqre$ueqgqpreuqyw;y;uuwf-",
"*NmA9kAZZNanndpyLAFNyLFAGyHLFA*##>#&SKLg;LmACybALKkrmGFskHPLvkGG",
"dvymae6zgsqjzmAuk6hkqkclxqvsgl@=e;2Oxz7zqksgk=agxkugxzkuyzbxiygs",
"bb*ybbj* Oo+XyMxbwebpbu*xnxy*bxbg#b7Ak@gxnlOo+&#Olnvs@kavb#OoOXO",
"mbyHzmzy@:q:eLczjkbvxvzcxaazcxzgzzvZaaLvvMl*=e*q;MkvzyLxvzq#q>q%",
"euq>rq3**>@$qqwqq>qu>pr$u*u#X*qurqa;ru$u*wu*q*$e$uwqy$yuwqXO##q*",
"lALSvuZZAb>SLABuzjJbrLLLL&#=*$*LAAAqAAFDwDFFFunAAbazAAAzo#$:OkPL",
"rZlcgrzzxgrzhzkwjbvjrbmzc+=qqq#czkcqMzkv-lAlMwdaxbeaslxu@>qukclz",
"zE@r5xg$>zzx* ooXX;vbkw*skcu@zrlu#jzay+xxklokxgzOkxzxXdyll+=llc#",
"zRcIvZxkUxzxao>q>;bZzzkbjzzzcZnvBsBbZZxxvnxdAxzzsFbAAiFxgzyLjvbr",
"qQ#wrqaqet:ut@*@>#e3qrq#y;eequqt$o>wyrwuere+uewr#2dyu+>wer#wwud#",
"qWCL9aAKKNyPnfgrPTLVePLLPeZYIH#@#*#@ZIFZ*FCFCynAPKk;CPPakJPPvgLL",
"k!pMga9zjhrMzZvub0mkqvbvvqAjjv#=eq1=vvNAqxmvk2gjbbdbcvcugvbblujj",
"z~@ybcs@XXXXX*hbcqqc3lt#lxxy#clly@c1xkoglldXXXO@+flksXfpgc#+X XX",
"CTpKzmzy@>e:;GvvjgFvbbzcbvuglljzZljBaaFvxZl@=wyuejvxvyGcxjt#q>q%",
"yLq>rr2#@=##+-wyw;$e2yq-u;fq@erwq@eqrr@reweX**;*+tty3+;ttw+O###O",
"i!PKxyDSIb:JPHjwghKLqKPUL@#&##*LLHPqAAII;DFPTunFLLugHLHgO##: kUI",
"i!zxkuzzxguvjvxujHvjwcMvc@:;qeqxzzzqZzvvqbZxZwzdzvyzjxcu+>-ilbxv",
"gH#e3kg$>lcz&XXX++;kkkq*hgkq@gqxf@gkpeockuk+kkag@fkgk$f>kkX:kkx@",
"vRiIvZvuPbvci@>q>;bvlzgbjxjlcvLvjhBvZZlxzcckvxzvhHbbAkGxjvuHkzcq",
"rQ$weerqqy5rrX##%@>pew$$eeyq#yuue#yuyqreyreXtert+etgu+etyw@qqtt+",
";^SL8rKKKC;Pnav;UTTC;PLKU;BIUY$+#@@@ZIFzenCPJycKUJk;CPPsuJPUvgPP",
"kgsmsa8zgmujzZzybmhztbcvvqAjjz;=e>2%bzmAwxmzk:kjlcxFxjlikvcvckjg"
};